<svg height="512" viewBox="0 0 64 64" width="512" xmlns="http://www.w3.org/2000/svg" xmlns:xlink="http://www.w3.org/1999/xlink"><linearGradient id="linear-gradient" gradientUnits="userSpaceOnUse" x1="-2" x2="65.365" y1="12" y2="12"><stop offset="0" stop-color="#84aa50"/><stop offset="1" stop-color="#00acc9"/></linearGradient><linearGradient id="linear-gradient-2" x2="65.365" xlink:href="#linear-gradient" y1="32" y2="32"/><linearGradient id="linear-gradient-3" x2="65.365" xlink:href="#linear-gradient" y1="46.5" y2="46.5"/><linearGradient id="linear-gradient-4" x2="65.365" xlink:href="#linear-gradient" y1="48.08" y2="48.08"/><linearGradient id="linear-gradient-5" x2="65.365" xlink:href="#linear-gradient" y1="36.016" y2="36.016"/><linearGradient id="linear-gradient-6" x1="-1.994" x2="65.371" xlink:href="#linear-gradient" y1="49.967" y2="49.967"/><linearGradient id="linear-gradient-7" x2="65.365" xlink:href="#linear-gradient" y1="57" y2="57"/><linearGradient id="linear-gradient-8" x2="65.365" xlink:href="#linear-gradient" y1="34.542" y2="34.542"/><g id="Gradient_outline" data-name="Gradient outline"><path d="m45.958 16.713-3-10a1 1 0 0 0 -.958-.713h-20a1 1 0 0 0 -.958.713l-3 10a1 1 0 0 0 .958 1.287h26a1 1 0 0 0 .958-1.287zm-25.614-.713 2.4-8h18.512l2.4 8z" fill="url(#linear-gradient)"/><path d="m10 26h1.054l1.946 35.056a1 1 0 0 0 1 .944h36a1 1 0 0 0 1-.944l1.946-35.056h1.054a1 1 0 0 0 1-1v-4a1 1 0 0 0 -1-1h-2.28l-5.772-17.316a1 1 0 0 0 -.948-.684h-26a1 1 0 0 0 -.948.684l-5.772 17.316h-2.28a1 1 0 0 0 -1 1v4a1 1 0 0 0 1 1zm39.054 34h-34.108l-1.889-34h37.886zm-29.333-56h24.558l5.333 16h-35.224zm-8.721 18h42v2h-42z" fill="url(#linear-gradient-2)"/><path d="m22 51h8v-2h-6.276l2.341-4.1 1.1 1.654 1.664-1.11-2-3a1 1 0 0 0 -.829-.444h-4v2h2.276l-3.144 5.5a1 1 0 0 0 .868 1.5z" fill="url(#linear-gradient-3)"/><path d="m40.483 49h-5.615l.964-1.445-1.664-1.11-2 3a1 1 0 0 0 -.05 1.027c.016.029.05.083.05.083l2 3 1.664-1.11-.964-1.445h7.132a1 1 0 0 0 .919-1.394l-3-7-1.838.788z" fill="url(#linear-gradient-4)"/><path d="m32 33.887 3.2 5.113h-2.2v2h4a1 1 0 0 0 .832-.445l2-3-1.664-1.11-1.141 1.712-4.179-6.687a1.039 1.039 0 0 0 -1.7 0l-5 8 1.7 1.06z" fill="url(#linear-gradient-5)"/><path d="m18 58h7v-2h-6.064l-.936-14.066-2 .132 1 15a1 1 0 0 0 1 .934z" fill="url(#linear-gradient-6)"/><path d="m27 56h2v2h-2z" fill="url(#linear-gradient-7)"/><path d="m46 40.917 2 .166 1-12a1 1 0 0 0 -1-1.083h-6v2h4.913z" fill="url(#linear-gradient-8)"/></g></svg>